<?xml version="1.0" encoding="utf-8"?>
<!-- Generator: Adobe Illustrator 25.4.1, SVG Export Plug-In . SVG Version: 6.00 Build 0)  -->
<svg version="1.1" id="Capa_1" xmlns="http://www.w3.org/2000/svg" xmlns:xlink="http://www.w3.org/1999/xlink" x="0px" y="0px"
	 viewBox="0 0 23.34 32" style="enable-background:new 0 0 23.34 32;" xml:space="preserve">
<style type="text/css">
	.st0{fill:#FFFFFF;}
</style>
<g>
	<path class="st0" d="M10.44,15.28c0.53,0.83,0.91,1.17,1.09,1.29l0.14-0.05l0.14,0.05c0.18-0.13,0.56-0.46,1.09-1.29H10.44z"/>
	<path class="st0" d="M6.9,7.83C6.89,7.94,6.88,8.05,6.88,8.17v0.62c0.87,1.22,1.69,2.87,2.62,4.78h4.28v0.13
		c0-0.01,0-0.01,0.01-0.01c0.88-1.8,1.66-3.38,2.47-4.59V8.17c0-0.07,0-0.13-0.01-0.2c2.15-1.47,3.57-3.94,3.57-6.73
		c0-0.68-0.55-1.24-1.24-1.24s-1.24,0.55-1.24,1.24c0,3.13-2.54,5.67-5.67,5.67S6,4.36,6,1.24C6,0.55,5.45,0,4.76,0
		S3.53,0.55,3.53,1.24C3.53,3.95,4.86,6.35,6.9,7.83z M9.35,9.04c0.73,0.22,1.51,0.34,2.32,0.34c0.73,0,1.43-0.1,2.11-0.28v1.99
		H9.35V9.04z"/>
	<path class="st0" d="M13.75,24.64c-0.34-0.41-0.63-0.74-0.91-0.97H10.5c-0.29,0.24-0.57,0.56-0.91,0.97
		c-0.66,0.79-1.45,1.73-2.71,2.11v3.17c0,1.15,0.55,2.08,1.24,2.08c0.6,0,1.1-0.72,1.21-1.68h4.47c0.11,0.96,0.61,1.68,1.21,1.68
		c0.68,0,1.24-0.93,1.24-2.08v-3.24C15.11,26.26,14.37,25.38,13.75,24.64z M13.78,27.85H9.35v-1.71h4.42V27.85z"/>
	<path class="st0" d="M17.63,26.29c-1.69,0-2.6-1.09-3.41-2.06c-0.74-0.89-1.38-1.65-2.56-1.65s-1.81,0.77-2.56,1.65
		c-0.81,0.96-1.72,2.06-3.41,2.06c-2.64,0-4.45-2.72-5.53-8.3c-0.64-3.32,0.54-8.25,1.96-9.96c0.43-0.53,0.9-0.79,1.39-0.79
		c2.08,0,3.37,2.43,5.47,6.72c1.44,2.93,2.36,3.26,2.52,3.3l0.15-0.06l0.15,0.06c0.16-0.04,1.08-0.37,2.52-3.3
		c2.1-4.29,3.39-6.72,5.47-6.72c0.49,0,0.96,0.27,1.39,0.79c1.41,1.71,2.59,6.64,1.96,9.96C22.08,23.58,20.28,26.29,17.63,26.29z"/>
</g>
</svg>
