<?xml version="1.0" encoding="utf-8"?>
<!-- Generator: Adobe Illustrator 25.4.1, SVG Export Plug-In . SVG Version: 6.00 Build 0)  -->
<svg version="1.1" id="Layer_1" xmlns="http://www.w3.org/2000/svg" xmlns:xlink="http://www.w3.org/1999/xlink" x="0px" y="0px"
	 viewBox="0 0 32.66 32" style="enable-background:new 0 0 32.66 32;" xml:space="preserve">
<style type="text/css">
	.st0{fill:#FFFFFF;}
</style>
<path class="st0" d="M12.66,0h3.93c0,0-0.48,9.56,3.53,6.87c1.84-1.23,4.98-3.41,8.83-0.1c3.03,2.6,5.72,6.88,1.57,15.9
	c-2.17,4.7-9.36,12.13-20.32,4.02c-1.67-1.23-6.08-4.22-6.38,5.3H0c0,0-0.15-11.14,6.28-10.31c3.33,0.43,11.04,2.47,12.27-5.5
	c0.26-1.65,0.97-3.68-2.94-5.99C13.94,9.23,12.56,8.34,12.66,0z"/>
</svg>
