<?xml version="1.0" encoding="utf-8"?>
<!-- Generator: Adobe Illustrator 25.4.1, SVG Export Plug-In . SVG Version: 6.00 Build 0)  -->
<svg version="1.1" id="Capa_1" xmlns="http://www.w3.org/2000/svg" xmlns:xlink="http://www.w3.org/1999/xlink" x="0px" y="0px"
	 viewBox="0 0 25.94 32" style="enable-background:new 0 0 25.94 32;" xml:space="preserve">
<style type="text/css">
	.st0{fill:#FFFFFF;}
</style>
<path class="st0" d="M11.29,0.01c2.44,0.09,4.83,0.45,7.03,1.6c2.14,1.12,3.61,2.76,4.13,5.19c0.17,0.8,0.45,1.58,0.71,2.36
	c0.16,0.49,0.36,0.98,0.57,1.46c0.24,0.58,0.28,1.17-0.02,1.73c-0.5,0.94-0.33,1.76,0.34,2.53c0.53,0.6,1.02,1.23,1.54,1.84
	c0.56,0.67,0.46,1.14-0.32,1.52c-0.19,0.09-0.38,0.16-0.57,0.24c-0.56,0.23-0.69,0.51-0.47,1.08c0.07,0.18,0.17,0.35,0.26,0.52
	c0.29,0.54,0.28,0.71-0.14,1.17c-0.16,0.17-0.17,0.29-0.05,0.49c0.34,0.6,0.26,0.91-0.32,1.26c-0.4,0.24-0.61,0.56-0.62,1.03
	c-0.02,0.48-0.05,0.97-0.13,1.45c-0.14,0.75-0.6,1.16-1.36,1.23c-0.32,0.03-0.65,0.03-0.98,0.02c-0.47,0-0.95-0.03-1.42-0.03
	c-0.98-0.01-1.77,0.35-2.23,1.24c-0.49,0.96-0.94,1.94-1.34,2.93C15.5,31.8,15.21,32.03,14.2,32c-2.87-0.1-5.62-0.68-8.21-1.96
	c-1.22-0.6-2.47-1.12-3.85-1.24c-0.41-0.04-0.49-0.38-0.2-0.75c0.87-1.1,1.5-2.31,1.9-3.65c0.42-1.42,0.32-2.76-0.36-4.08
	c-0.75-1.46-1.52-2.93-2.19-4.43C0.38,13.82-0.04,11.65,0,9.4c0.07-3.53,1.67-6.16,4.7-7.91C6.74,0.32,8.97-0.06,11.29,0.01z
	 M7.85,7.74c0,0.18,0,0.31,0,0.44c0,1.01,0,2.01,0,3.02c0,0.25,0.02,0.51-0.26,0.62c-0.29,0.12-0.43-0.1-0.6-0.28
	c-0.35-0.4-0.8-0.6-1.33-0.52c-0.69,0.09-1.22,0.63-1.3,1.28c-0.08,0.66,0.27,1.3,0.88,1.57c0.62,0.28,1.31,0.11,1.77-0.44
	c0.16-0.19,0.34-0.39,0.57-0.23c0.14,0.1,0.25,0.35,0.25,0.54c0.02,1.03,0.01,2.06,0.01,3.09c0,0.13,0,0.26,0,0.41
	c0.16,0.01,0.28,0.02,0.4,0.02c1.03,0,2.06,0,3.09,0c0.25,0,0.5,0.01,0.61-0.28c0.11-0.29-0.08-0.44-0.28-0.61
	c-0.49-0.41-0.64-0.93-0.48-1.54c0.16-0.61,0.7-1.03,1.33-1.07c0.62-0.03,1.21,0.34,1.44,0.91c0.25,0.6,0.08,1.27-0.44,1.71
	c-0.2,0.17-0.37,0.33-0.26,0.61c0.11,0.26,0.34,0.26,0.58,0.26c1.06,0,2.11,0,3.17,0c0.1,0,0.21-0.01,0.34-0.02
	c0-1.19,0-2.35,0-3.52c0-0.24-0.01-0.47-0.28-0.57c-0.28-0.1-0.43,0.07-0.58,0.26c-0.26,0.33-0.6,0.52-1.02,0.56
	c-0.7,0.06-1.34-0.37-1.54-1.03c-0.2-0.66,0.08-1.38,0.69-1.72c0.61-0.34,1.37-0.21,1.85,0.34c0.16,0.19,0.31,0.39,0.6,0.3
	c0.31-0.11,0.29-0.38,0.29-0.64c0-1.02,0-2.04,0-3.06c0-0.13-0.01-0.26-0.02-0.4c-0.13-0.01-0.23-0.02-0.32-0.02
	c-1.07,0-2.13,0-3.2,0c-0.24,0-0.52-0.01-0.53-0.3c-0.01-0.17,0.12-0.38,0.26-0.5c0.5-0.46,0.69-1.07,0.48-1.67
	c-0.21-0.6-0.75-0.99-1.38-0.99c-0.64-0.01-1.19,0.36-1.42,0.95c-0.24,0.61-0.07,1.26,0.46,1.7c0.19,0.16,0.39,0.34,0.24,0.57
	c-0.09,0.14-0.35,0.24-0.54,0.25C10.55,7.75,9.72,7.74,8.9,7.74C8.56,7.74,8.22,7.74,7.85,7.74z"/>
</svg>
