<?xml version="1.0" encoding="utf-8"?>
<!-- Generator: Adobe Illustrator 25.4.1, SVG Export Plug-In . SVG Version: 6.00 Build 0)  -->
<svg version="1.1" id="Capa_1" xmlns="http://www.w3.org/2000/svg" xmlns:xlink="http://www.w3.org/1999/xlink" x="0px" y="0px"
	 viewBox="0 0 21.8 32" style="enable-background:new 0 0 21.8 32;" xml:space="preserve">
<style type="text/css">
	.st0{fill:#FFFFFF;}
</style>
<g>
	<g>
		<g>
			<path class="st0" d="M12.9,19.62c-0.99-2.64-0.05-5.87,2.18-7.57c5.01-2.27,4.7-6.25,3.84-8.31c-0.71-1.67-2.95-4.87-7.72-3.33
				C7.57,1.5,4.4,4.04,2.36,7.3C0.2,10.73-2.49,22.54,4.53,28.16c2.06,1.65,8.44,3.62,11.08-0.81C16.71,24.6,13.39,20.94,12.9,19.62
				z"/>
			<path class="st0" d="M16.59,15.18h-2.31c-0.35,0.81-0.51,1.71-0.46,2.59h2.74c1.45,0,2.64,1.17,2.64,2.64V32h2.59V20.39
				C21.8,17.51,19.47,15.18,16.59,15.18z"/>
			<path class="st0" d="M15.93,13.04h5.67v-2.59h-2.21C18.96,11.27,16.26,12.81,15.93,13.04z"/>
		</g>
	</g>
</g>
</svg>
